<?xml version="1.0" standalone="no"?>
<!DOCTYPE svg PUBLIC "-//W3C//DTD SVG 20010904//EN"
 "http://www.w3.org/TR/2001/REC-SVG-20010904/DTD/svg10.dtd">
<svg version="1.0" xmlns="http://www.w3.org/2000/svg"
 width="280.000000pt" height="467.000000pt" viewBox="0 0 280.000000 467.000000"
 preserveAspectRatio="xMidYMid meet">

<g transform="translate(0.000000,467.000000) scale(0.100000,-0.100000)"
fill="#000000" stroke="none">
<path d="M0 4265 c0 -370 1 -405 17 -405 14 0 14 -3 -3 -22 -19 -22 -19 -23 1
-8 11 8 23 19 27 25 13 18 21 -5 10 -30 -13 -28 -2 -34 18 -10 20 24 32 17 15
-8 -22 -35 -24 -116 -2 -132 9 -7 17 -18 17 -26 0 -8 14 -43 30 -77 34 -72 35
-75 18 -70 -7 3 -15 15 -19 29 -6 22 -7 22 -8 -7 -1 -24 5 -33 24 -42 14 -7
31 -12 38 -12 7 -1 25 -21 40 -46 l29 -44 -21 -18 c-24 -20 -87 -141 -101
-194 -6 -21 -14 -38 -19 -38 -13 0 0 104 15 115 6 6 15 20 19 33 5 17 2 22
-13 22 -11 0 -35 3 -53 6 l-34 5 26 -17 c29 -19 32 -36 23 -121 l-5 -53 -45 0
-44 0 0 -115 0 -115 370 0 370 0 0 -360 c0 -300 -2 -360 -14 -367 -8 -4 -52
-5 -98 -2 -46 3 -87 2 -93 -3 -5 -4 -17 -8 -26 -8 -12 0 -16 6 -12 20 3 11 9
20 14 20 5 0 9 11 9 25 0 14 9 39 21 54 26 36 19 71 -14 65 -12 -2 -16 -2 -10
2 20 9 15 48 -7 67 -19 16 -28 47 -12 47 4 0 17 -15 29 -33 16 -22 23 -26 23
-14 0 9 4 17 9 17 13 0 10 41 -3 59 -9 11 -7 13 10 7 18 -5 21 -2 22 24 1 25
-3 30 -22 30 -18 0 -22 5 -20 23 1 12 3 30 3 40 1 25 36 21 54 -5 15 -22 16
-19 16 54 1 106 -17 150 -77 184 -58 32 -145 34 -227 3 -99 -37 -128 -103
-105 -238 10 -61 10 -73 -4 -93 -9 -12 -16 -33 -16 -47 0 -34 38 -90 66 -97
20 -5 24 -13 25 -43 1 -20 3 -49 5 -66 4 -38 -10 -56 -67 -83 -36 -17 -63 -22
-132 -22 l-87 0 0 -122 0 -123 121 2 c103 2 119 0 109 -12 -7 -8 -10 -22 -6
-30 7 -18 -5 -20 -23 -3 -11 11 -12 8 -7 -14 5 -23 3 -28 -13 -28 -13 0 -21
-9 -26 -30 -7 -32 -14 -37 -32 -19 -8 8 -14 6 -22 -9 -7 -13 -7 -22 -1 -24 17
-5 21 -48 5 -48 -8 0 -17 -11 -21 -25 -3 -14 -10 -25 -15 -25 -6 0 -5 -9 1
-21 10 -19 10 -20 -9 -10 -11 6 -22 11 -25 11 -12 0 2 -61 20 -87 10 -15 17
-34 16 -42 -2 -7 1 -10 7 -7 15 10 25 -15 10 -26 -11 -7 -11 -11 -1 -15 6 -2
12 -14 12 -26 0 -12 5 -29 10 -37 8 -13 10 -13 10 1 0 24 27 31 45 13 13 -14
15 -13 15 8 0 18 2 20 10 8 6 -10 10 -11 10 -3 0 9 10 11 30 7 19 -4 30 -2 30
5 0 6 4 11 10 11 5 0 7 -6 4 -14 -4 -10 14 -17 70 -26 41 -8 72 -18 69 -23 -3
-5 -47 -7 -98 -5 -61 2 -96 0 -103 -8 -6 -7 -12 -37 -14 -68 -3 -48 -5 -55
-21 -50 -9 3 -17 1 -17 -5 0 -6 19 -11 43 -11 58 0 87 -9 87 -27 0 -11 4 -13
13 -5 6 5 21 12 32 15 15 4 13 5 -7 6 -32 1 -40 31 -9 31 10 0 36 8 57 17 l39
17 -45 10 c-25 6 -51 15 -59 20 -9 6 -17 4 -23 -7 -5 -9 -15 -14 -23 -11 -8 4
-15 1 -15 -6 0 -6 -4 -8 -10 -5 -14 9 -12 21 7 41 15 14 30 16 104 10 82 -6
88 -5 94 14 8 26 20 26 22 -1 2 -26 18 -45 44 -52 13 -4 19 -1 17 8 -2 8 0 14
4 14 5 1 20 11 35 24 60 50 65 58 59 89 -5 26 -4 29 9 18 13 -11 15 -9 13 19
-2 22 -6 30 -16 26 -8 -3 -10 0 -6 7 5 7 13 41 20 75 12 63 9 109 -7 119 -5 3
-9 14 -9 25 0 10 -4 19 -10 19 -5 0 -10 8 -10 18 0 9 -5 24 -11 32 -8 11 -9 9
-4 -10 7 -24 7 -24 -9 -5 -8 11 -16 25 -16 32 0 6 -18 31 -40 55 -22 23 -40
46 -40 51 0 4 59 7 130 7 l130 0 -2 -372 -3 -373 -125 3 c-69 2 -195 4 -280 6
-85 2 -170 7 -189 11 -20 5 -32 4 -28 -2 6 -9 -25 -16 -85 -17 l-38 -1 0 -582
0 -583 1400 0 1400 0 0 2335 0 2335 -1400 0 -1400 0 0 -405z m2790 326 c0 -5
-6 -12 -12 -14 -10 -4 -10 -7 -1 -14 8 -5 12 -36 12 -81 0 -66 -3 -74 -22 -82
l-22 -9 22 0 c21 -1 23 -5 22 -56 -1 -31 -6 -58 -10 -61 -5 -3 -7 -10 -4 -15
10 -15 -5 -10 -23 8 -16 15 -17 15 -20 0 -3 -13 -8 -14 -29 -6 -20 7 -30 6
-43 -6 -20 -18 -51 -20 -68 -3 -16 16 -15 28 2 28 26 0 25 15 -1 16 -32 2 -42
14 -22 27 14 9 13 13 -10 33 l-26 23 35 1 c33 1 34 2 16 15 -18 14 -18 15 -1
21 10 4 26 2 36 -4 27 -17 34 -15 47 13 14 29 42 33 42 6 0 -10 6 -23 13 -30
11 -8 14 5 14 75 0 47 3 88 7 91 3 3 1 12 -5 20 -9 10 -5 13 20 13 17 0 31 -4
31 -9z m0 -372 c0 -5 -9 -9 -20 -9 -25 0 -26 -16 -1 -23 14 -3 19 -14 19 -51
1 -44 0 -46 -26 -46 -27 0 -27 0 -26 68 1 37 2 70 3 73 2 10 51 -2 51 -12z
m-2380 -373 c-7 -7 -14 -6 -21 1 -9 9 -7 12 9 10 14 -1 18 -5 12 -11z m601 0
c-9 -11 -9 -15 0 -18 7 -2 -9 -21 -34 -42 -25 -20 -47 -47 -49 -59 -3 -20 -11
-23 -71 -27 -51 -4 -67 -2 -67 8 0 7 4 10 10 7 13 -8 61 25 54 37 -3 5 3 12
15 15 11 3 18 9 16 14 -3 4 4 6 15 4 12 -2 23 2 27 10 3 8 10 15 17 15 6 0 24
11 40 25 32 28 45 33 27 11z m309 -2 c34 -16 93 -34 113 -34 9 0 17 -4 17 -9
0 -5 9 -13 20 -16 19 -6 20 -15 20 -336 l0 -330 -105 2 c-80 2 -105 6 -101 15
3 7 -2 18 -10 25 -8 7 -14 8 -13 3 7 -39 0 -43 -68 -38 -38 2 -75 6 -83 7 -49
8 -55 53 -10 70 17 6 30 15 30 19 0 4 -13 15 -30 25 -16 9 -30 20 -30 24 0 4
30 10 68 15 l67 8 -72 6 c-40 3 -75 8 -77 11 -10 10 7 49 20 49 18 0 18 15 -2
34 -18 18 -19 34 -5 96 8 38 6 49 -10 71 -10 15 -19 31 -19 35 0 4 -10 18 -22
32 -22 23 -22 24 -5 37 13 9 15 15 7 20 -18 11 -1 21 63 39 55 16 60 16 100
-2 56 -25 89 -65 113 -138 l19 -59 3 55 c7 122 -9 155 -116 243 -36 29 -95 36
-149 17 -27 -10 -27 -9 -8 5 16 13 44 16 135 14 65 -1 125 -8 140 -15z m922
-181 c2 -109 2 -250 0 -314 l-3 -117 -117 -11 c-64 -7 -127 -14 -139 -17 -21
-4 -19 1 17 48 38 51 90 165 90 200 0 9 -4 19 -9 22 -4 3 -10 52 -13 109 -4
77 -11 113 -27 144 -20 40 -82 90 -99 79 -5 -3 -23 0 -39 6 -27 10 -38 8 -97
-23 -92 -47 -106 -72 -106 -185 1 -88 1 -89 17 -59 9 17 18 25 21 17 2 -6 8
-9 13 -6 6 3 7 -4 4 -19 -7 -27 22 -67 49 -67 8 0 22 -14 31 -32 15 -31 15
-33 -7 -50 -23 -17 -23 -17 -3 -32 11 -9 28 -16 38 -16 25 0 21 -28 -5 -32
-13 -2 -29 -15 -36 -31 -9 -18 -19 -26 -28 -23 -15 6 -49 -48 -39 -63 2 -5 -3
-12 -12 -16 -10 -3 -19 -1 -21 4 -5 16 -22 13 -22 -4 0 -18 -16 -20 -24 -2 -4
6 -4 -3 -1 -20 l5 -33 -85 0 -85 0 0 370 0 370 365 0 364 0 3 -197z m-1802
172 c-7 -8 -17 -15 -22 -15 -6 0 -5 7 2 15 7 8 17 15 22 15 6 0 5 -7 -2 -15z
m262 -46 c-12 -9 -18 -20 -14 -23 3 -4 -1 -4 -11 0 -22 8 -22 24 1 25 10 0 12
3 5 6 -20 8 -15 21 10 25 30 4 34 -12 9 -33z m-239 -25 c6 -32 1 -30 -18 6
-13 24 -13 29 -1 24 8 -3 16 -16 19 -30z m116 2 c20 -21 20 -24 5 -23 -11 1
-20 -6 -22 -18 -2 -11 -6 -27 -9 -35 -3 -8 -5 -19 -4 -24 1 -5 -5 -4 -14 4
-16 13 -18 93 -1 83 4 -3 5 4 1 16 -9 29 15 28 44 -3z m47 -88 c-6 -15 -18
-31 -28 -34 -10 -3 -15 -10 -12 -16 4 -7 2 -8 -4 -4 -7 4 -12 3 -12 -3 0 -20
25 -16 47 8 12 14 23 20 23 13 0 -7 -7 -15 -16 -19 -8 -3 -13 -12 -10 -19 3
-7 -5 -20 -16 -29 l-22 -15 22 -45 c12 -25 27 -44 33 -43 6 2 13 -2 16 -8 6
-17 -36 -11 -47 6 -7 11 -10 11 -10 2 0 -7 -4 -11 -10 -7 -5 3 -7 13 -4 23 5
14 4 15 -5 2 -10 -13 -12 -13 -21 0 -5 8 -10 26 -10 40 0 20 2 22 10 10 7 -11
10 -1 10 36 0 34 5 56 15 64 8 7 14 18 13 24 -1 6 7 25 18 43 15 26 20 29 25
16 3 -10 1 -30 -5 -45z m151 40 c-3 -8 -6 -5 -6 6 -1 11 2 17 5 13 3 -3 4 -12
1 -19z m-402 -29 c-4 -5 -12 -9 -18 -8 -9 0 -8 2 1 6 6 2 9 10 6 15 -4 7 -2 8
5 4 6 -4 9 -12 6 -17z m55 -6 c0 -20 -34 -12 -38 9 -2 12 2 15 17 11 12 -3 21
-12 21 -20z m295 4 c0 -8 4 -19 8 -23 4 -4 7 -38 7 -75 0 -60 -2 -68 -17 -62
-10 4 -14 2 -9 -5 3 -6 1 -14 -5 -17 -6 -4 -13 2 -16 14 -6 23 -23 29 -23 9 0
-7 -10 2 -22 20 -17 28 -19 35 -8 42 8 5 19 6 25 3 5 -3 5 0 -1 7 -15 15 12
67 39 76 15 5 16 8 5 21 -11 14 -11 15 2 11 8 -2 15 -12 15 -21z m-583 -89
c-9 -9 -12 -7 -12 12 0 19 3 21 12 12 9 -9 9 -15 0 -24z m848 -38 c0 -5 -5
-10 -11 -10 -5 0 -7 5 -4 10 3 6 8 10 11 10 2 0 4 -4 4 -10z m-250 -90 c0 -48
-14 -51 -36 -9 -8 17 -11 29 -6 25 5 -3 15 1 22 9 18 22 20 19 20 -25z m239
-22 c-1 -18 -3 -25 -6 -15 -2 9 -9 17 -15 17 -6 0 -6 6 2 15 18 21 20 19 19
-17z m-367 -16 c-14 -4 -62 16 -62 28 0 5 16 2 36 -7 19 -10 31 -19 26 -21z
m1366 -262 c26 0 54 4 62 9 8 6 19 7 25 3 5 -4 47 -5 93 -3 l82 3 0 -26 c0
-14 -1 -26 -2 -26 -2 -1 -52 -3 -112 -6 -78 -4 -115 -2 -132 7 -19 10 -32 10
-65 0 -22 -7 -43 -10 -46 -7 -3 3 5 22 18 43 18 28 25 34 27 21 3 -14 14 -18
50 -18z m-283 -290 c-3 -5 -11 -10 -16 -10 -6 0 -7 5 -4 10 3 6 11 10 16 10 6
0 7 -4 4 -10z m205 -2 c-14 -6 -42 -19 -63 -30 -35 -17 -57 -17 -57 0 0 18 59
41 100 41 41 0 43 -1 20 -11z m-408 -10 c3 -7 5 -103 4 -213 l-1 -200 -50 0
c-39 0 -49 -3 -46 -15 2 -8 6 -32 8 -52 4 -33 2 -38 -16 -38 -14 0 -21 6 -21
20 0 33 -24 22 -41 -19 -10 -22 -25 -40 -38 -44 -20 -5 -21 -2 -16 26 5 26 1
37 -19 56 -32 30 -45 21 -22 -15 22 -32 17 -37 -28 -29 -37 7 -47 21 -22 31
30 12 24 30 -9 26 l-32 -4 5 56 c3 36 -1 69 -11 94 -9 22 -12 44 -7 52 4 7 6
19 3 26 -7 19 39 45 73 41 51 -6 80 -34 103 -95 11 -31 22 -73 25 -92 2 -19 5
-36 5 -38 1 -1 11 2 22 9 17 9 19 13 8 19 -11 7 -11 13 0 34 10 17 12 42 7 78
-10 86 -25 125 -64 172 -20 25 -44 55 -53 68 -16 22 -16 22 -60 4 -124 -51
-165 -81 -178 -134 -13 -53 -7 -335 8 -340 6 -2 11 -9 11 -16 0 -20 69 -120
92 -133 13 -7 19 -13 13 -13 -81 -7 -201 -11 -220 -6 -17 4 -28 19 -40 56 -9
27 -14 59 -10 70 4 14 2 20 -9 20 -9 0 -13 -6 -10 -14 3 -8 1 -23 -5 -34 -7
-13 -7 -23 2 -32 9 -9 8 -14 -5 -23 -15 -10 -14 -13 10 -30 15 -10 20 -17 12
-16 -29 3 -40 -1 -40 -16 0 -23 -24 -18 -48 10 -27 31 -33 135 -7 135 8 0 15
7 15 15 0 18 -16 20 -23 3 -3 -7 -6 4 -6 25 l-1 37 50 0 50 0 0 41 c0 38 2 40
27 37 19 -2 29 -11 35 -28 6 -23 7 -23 5 5 l-2 30 -82 3 -83 3 0 199 0 200
364 0 c282 0 365 -3 368 -12z m262 -21 l29 -23 -26 -30 c-15 -16 -42 -47 -60
-68 -18 -21 -39 -37 -46 -35 -9 3 -5 15 14 37 15 18 25 35 22 38 -2 3 -25 -19
-51 -49 -47 -55 -62 -84 -27 -53 25 22 35 7 24 -36 -12 -48 -5 -85 18 -91 16
-4 18 -1 13 19 -7 25 1 30 26 14 12 -8 13 -13 3 -29 -10 -17 -9 -20 15 -24 30
-6 58 6 84 37 9 12 18 19 18 16 1 -3 3 -21 5 -40 2 -19 6 -47 10 -62 5 -18 3
-28 -4 -28 -6 0 -11 6 -11 14 0 18 -17 29 -31 21 -7 -5 -3 -14 10 -26 24 -23
40 -24 47 -5 5 12 11 13 32 4 42 -16 82 -19 104 -7 18 10 20 9 15 -6 -4 -9 -7
-23 -7 -30 0 -21 -48 -65 -71 -65 -12 0 -23 -8 -26 -19 -6 -24 -130 -81 -175
-81 -46 0 -78 24 -78 59 0 36 -8 43 -33 29 -17 -9 -19 -8 -12 8 4 11 9 31 11
47 3 24 1 26 -14 18 -9 -5 -26 -19 -36 -30 -19 -21 -19 -22 3 -45 13 -14 19
-29 15 -40 -5 -12 -2 -15 9 -10 11 4 23 -6 39 -32 16 -25 38 -42 68 -54 76
-30 62 -40 -54 -40 -106 0 -106 0 -106 24 0 14 5 28 10 31 16 10 12 65 -4 65
-12 0 -14 32 -13 189 2 176 3 191 23 213 11 13 46 52 77 87 31 36 57 70 57 76
0 10 32 32 50 34 3 1 18 -10 34 -22z m-129 -27 c-6 -29 -97 -132 -108 -121
-12 12 7 46 57 102 43 47 57 53 51 19z m362 -70 c15 -17 28 -38 29 -48 20
-125 21 -122 -46 -102 -19 6 -57 13 -85 15 -42 3 -55 10 -86 43 l-37 38 34 19
c19 10 34 22 34 27 0 4 0 11 -1 16 0 10 39 20 88 21 36 1 47 -4 70 -29z m259
-143 c-3 -12 -27 -44 -53 -72 -36 -38 -48 -46 -51 -33 -4 23 13 54 62 109 41
46 55 45 42 -4z m-56 8 c-7 -9 -15 -13 -17 -11 -7 7 7 26 19 26 6 0 6 -6 -2
-15z m60 -260 l0 -205 -170 0 c-93 0 -170 2 -170 5 0 10 62 129 81 156 10 14
21 38 25 53 4 19 14 29 34 33 18 3 27 10 23 18 -2 8 5 18 16 24 17 9 19 9 15
-3 -3 -8 -1 -17 4 -20 6 -3 38 28 73 68 35 41 65 75 67 75 1 1 2 -91 2 -204z
m-292 113 c4 -18 -19 -29 -38 -18 -10 6 -10 11 1 24 17 18 33 16 37 -6z
m-1113 -33 c0 -28 -3 -30 -42 -33 l-43 -3 0 36 0 36 43 -3 c39 -3 42 -5 42
-33z m653 -22 c3 -20 -1 -23 -32 -23 -32 0 -36 3 -36 26 0 23 3 25 33 22 24
-2 33 -8 35 -25z m-1158 -23 c12 -7 12 -10 -4 -16 -18 -7 -18 -8 0 -22 18 -14
18 -14 1 -8 -10 3 -22 6 -26 6 -3 0 -8 11 -9 25 -2 26 12 32 38 15z m1157 -52
c2 -25 -1 -28 -31 -28 -40 0 -44 4 -38 36 4 21 9 25 36 22 25 -2 31 -8 33 -30z
m-278 -14 c17 -8 35 -23 40 -33 13 -24 -43 -61 -87 -58 -35 2 -38 20 -5 25 11
2 25 14 31 28 11 23 10 24 -23 24 -42 0 -55 17 -18 23 16 2 28 5 29 6 0 0 15
-6 33 -15z m117 -30 c-2 -35 -26 -64 -74 -91 -26 -15 -32 -16 -32 -4 0 5 8 12
18 15 9 3 33 31 52 61 19 30 36 54 37 55 1 0 1 -16 -1 -36z m74 21 c0 -8 -8
-15 -17 -16 -13 0 -12 -3 6 -10 16 -6 28 -6 37 2 7 6 23 9 36 7 22 -3 23 -7
23 -77 l0 -75 -60 1 c-100 3 -121 4 -107 10 6 2 12 9 12 15 0 6 10 25 23 42
39 51 42 59 20 48 -17 -9 -18 -6 -18 29 0 34 3 39 22 39 14 0 23 -6 23 -15z
m-432 -162 c-10 -2 -26 -2 -35 0 -10 3 -2 5 17 5 19 0 27 -2 18 -5z m50 -262
c2 -6 9 -8 15 -4 7 3 9 3 5 -1 -3 -4 0 -22 7 -39 11 -27 10 -35 -11 -75 -15
-28 -24 -61 -23 -86 1 -40 1 -39 13 17 17 77 32 90 110 95 57 4 65 2 80 -19
12 -18 16 -20 16 -7 0 9 -11 29 -24 43 -25 27 -62 34 -108 22 -22 -6 -28 -3
-33 14 -4 11 -5 22 -3 25 6 5 98 21 165 28 50 5 53 4 59 -19 8 -32 33 -33 27
-2 -4 21 -1 23 29 23 25 -1 33 -5 32 -19 -1 -10 3 -16 10 -14 6 2 11 10 11 18
0 7 8 15 18 17 19 4 24 -14 5 -21 -8 -3 -6 -6 5 -6 10 -1 17 6 17 17 0 13 2
14 9 4 4 -7 14 -12 22 -10 12 3 14 -50 16 -332 1 -224 -2 -324 -8 -302 -5 17
-12 32 -15 32 -3 0 -2 -10 2 -22 3 -13 3 -20 -1 -16 -12 12 -32 -15 -27 -38 3
-16 -2 -24 -17 -29 -29 -9 -55 14 -59 50 -2 17 -15 55 -30 85 -22 45 -36 60
-77 81 -59 31 -60 42 -14 137 17 34 28 70 26 80 -4 13 -5 12 -6 -4 -1 -18 -7
-22 -33 -20 -18 0 -32 -3 -31 -9 1 -6 -24 -10 -58 -10 -46 0 -58 3 -54 14 4
11 -2 12 -29 8 -28 -4 -36 -2 -44 16 -8 17 -11 18 -11 5 -1 -26 10 -49 21 -42
5 3 8 0 7 -7 -1 -8 1 -22 6 -32 10 -25 -1 -84 -19 -103 -9 -8 -16 -13 -16 -9
0 3 -4 4 -9 0 -20 -12 26 -105 52 -105 5 0 3 8 -4 18 -13 15 -12 16 3 3 10 -7
15 -17 13 -22 -6 -8 62 -59 78 -59 5 0 -1 9 -14 21 -15 13 -18 19 -8 16 9 -3
23 0 30 6 11 10 11 9 1 -4 -16 -21 6 -41 50 -46 18 -2 34 -6 37 -9 8 -8 -126
3 -139 11 -6 3 -17 -1 -25 -9 -14 -14 -12 -17 20 -30 19 -8 51 -18 70 -22 64
-12 36 -24 -54 -24 -103 0 -95 -8 -111 114 -10 76 -22 106 -43 106 -5 0 -25
-10 -44 -21 l-35 -22 25 -21 c35 -29 47 -57 47 -110 l0 -46 -95 0 -95 0 0 371
1 372 132 -6 c79 -3 133 -10 135 -16z m1002 3 c0 -13 2 -13 16 1 13 12 36 15
110 14 l94 -1 0 -33 c0 -24 -5 -34 -20 -38 -16 -4 -20 -14 -20 -46 0 -30 -4
-41 -15 -41 -8 0 -15 -4 -15 -10 0 -5 11 -10 25 -10 17 0 23 -4 19 -15 -4 -8
1 -17 9 -21 8 -3 14 -16 13 -30 -1 -20 -6 -24 -33 -24 -29 0 -32 3 -31 30 1
20 6 30 17 30 9 1 -2 7 -23 15 -27 9 -45 11 -58 4 -14 -8 -18 -6 -18 9 0 10
-5 23 -12 30 -9 9 -6 12 14 12 31 0 33 3 42 52 6 30 4 37 -7 32 -9 -3 -14 -17
-13 -32 0 -15 -3 -29 -9 -30 -5 -2 -18 -8 -28 -13 -12 -7 -19 -6 -23 5 -3 8
-12 17 -20 20 -20 8 -7 -13 23 -37 13 -10 23 -26 23 -36 0 -19 -39 -61 -42
-45 -3 22 -5 30 -12 49 -4 11 -12 28 -17 37 -5 10 -9 25 -9 33 0 8 -6 14 -12
13 -8 -2 -12 5 -10 16 3 13 -1 17 -12 13 -8 -3 -22 0 -30 8 -22 22 -31 18 -46
-20 -8 -19 -17 -35 -22 -35 -4 0 -8 -4 -8 -10 0 -5 5 -10 10 -10 6 0 19 -9 29
-19 18 -18 18 -19 -5 -30 -40 -18 -28 -31 24 -26 l47 5 -30 -14 c-24 -12 -26
-15 -10 -16 11 -1 15 -4 9 -6 -6 -3 -22 -1 -35 4 -34 13 -66 -4 -74 -42 -7
-28 -8 -29 -12 -8 -3 13 -15 27 -29 32 -13 5 -24 14 -24 20 0 5 -15 10 -34 10
l-34 0 11 35 c9 29 7 38 -8 55 -18 20 -18 21 10 50 16 17 36 30 44 31 11 0 12
2 4 6 -33 13 -126 -73 -138 -127 -4 -17 -13 -34 -20 -37 -8 -2 -11 -11 -8 -19
4 -10 0 -12 -11 -8 -9 3 -16 1 -16 -5 0 -6 -7 -11 -15 -11 -9 0 -13 7 -9 18 2
9 -1 7 -7 -5 -23 -45 -30 -21 -27 100 l3 122 40 5 c22 3 138 6 258 7 187 1
217 0 217 -13z m-1705 -4 c3 -5 1 -10 -4 -10 -6 0 -11 5 -11 10 0 6 2 10 4 10
3 0 8 -4 11 -10z m160 -1 c11 -17 -1 -21 -15 -4 -8 9 -8 15 -2 15 6 0 14 -5
17 -11z m-105 -219 c0 -16 5 -30 10 -30 6 0 10 -9 10 -20 0 -11 5 -20 10 -20
6 0 10 -5 10 -11 0 -6 -9 -8 -22 -3 -39 12 -102 13 -116 2 -10 -9 -8 -16 9
-35 l22 -23 -29 0 c-16 0 -40 -3 -53 -7 -17 -4 -22 -3 -17 5 4 7 2 12 -3 12
-6 0 -24 -19 -41 -41 -29 -41 -30 -41 -38 -18 -20 53 46 159 99 159 11 0 12
-27 0 -32 -4 -1 -11 -13 -15 -25 -6 -18 -4 -20 13 -16 25 6 48 32 53 58 1 11
16 26 33 33 16 7 33 20 38 28 13 24 27 16 27 -16z m1370 -17 c-1 -20 -18 -32
-38 -26 -18 4 -20 8 -11 19 12 15 49 19 49 7z m-1225 -75 c9 -18 23 -44 31
-58 19 -34 18 -64 -3 -87 -10 -10 -14 -13 -9 -5 11 15 -4 28 -41 38 -29 8 -30
34 -2 41 20 6 20 6 -3 31 -13 14 -17 22 -10 18 6 -4 12 -2 12 3 0 6 -4 11 -10
11 -5 0 -14 9 -20 20 -9 17 -8 20 14 20 17 0 29 -9 41 -32z m1498 5 c6 -31 -6
-43 -43 -43 -17 0 -30 9 -42 29 -19 34 -14 38 48 40 27 1 32 -3 37 -26z m-149
-3 c52 -23 55 -29 26 -50 -21 -15 -27 -40 -10 -40 6 0 9 -6 8 -12 -2 -8 8 -13
26 -13 39 0 45 -22 9 -36 -15 -6 -23 -13 -17 -16 18 -6 5 -39 -19 -52 l-22
-12 21 5 c29 5 42 -4 44 -34 4 -52 2 -56 -40 -58 -33 -2 -40 1 -40 15 0 10 -7
27 -15 37 -20 26 -19 36 3 36 16 1 16 1 -1 14 -10 8 -15 20 -11 29 3 10 0 15
-12 14 -28 -3 -28 22 0 34 32 15 34 33 4 24 l-23 -6 23 14 c12 7 19 16 16 20
-11 11 -42 8 -46 -4 -2 -6 -19 -12 -38 -15 -19 -2 -44 -5 -54 -6 -14 -2 -23 6
-30 25 -12 33 1 61 30 63 10 1 31 7 47 13 22 9 27 8 27 -4 0 -8 5 -15 10 -15
6 0 10 6 10 13 0 10 18 37 26 37 1 0 22 -9 48 -20z m-284 -21 c0 -24 -4 -30
-16 -25 -8 3 -12 2 -9 -4 4 -6 -7 -10 -25 -10 -27 0 -31 3 -28 23 2 13 10 22
20 22 10 0 23 6 30 13 20 20 28 14 28 -19z m630 -5 c0 -17 -6 -24 -20 -24 -15
0 -20 7 -20 29 0 24 3 28 20 24 13 -3 20 -14 20 -29z m-1046 -9 c-4 -8 -12
-15 -19 -15 -7 0 -18 7 -25 15 -11 13 -8 15 18 15 24 0 30 -4 26 -15z m-74
-16 c0 -5 -4 -9 -10 -9 -5 0 -10 7 -10 16 0 8 5 12 10 9 6 -3 10 -10 10 -16z
m1060 -30 c-11 -20 -13 -20 -28 -5 -16 16 -15 18 8 36 20 15 26 16 28 5 2 -8
-2 -24 -8 -36z m-1720 9 c10 -6 7 -7 -10 -2 -14 3 -32 11 -40 16 -10 6 -7 7
10 2 14 -3 32 -11 40 -16z m739 -8 c20 0 23 -2 11 -10 -24 -15 -76 -12 -91 7
-13 15 -11 16 20 10 18 -4 45 -7 60 -7z m-885 -25 c-4 -8 -8 -15 -10 -15 -2 0
-4 7 -4 15 0 8 4 15 10 15 5 0 7 -7 4 -15z m34 3 c-2 -6 -10 -14 -16 -16 -7
-2 -10 2 -6 12 7 18 28 22 22 4z m1234 -51 c10 -3 10 -7 2 -17 -16 -16 -54 -3
-54 19 0 26 10 32 26 16 8 -7 19 -15 26 -18z m56 9 c6 -13 20 -27 31 -31 12
-3 21 -11 21 -16 0 -5 6 -9 14 -9 8 0 18 -5 22 -12 7 -11 -11 -9 -76 8 -14 4
-22 3 -18 -1 4 -5 3 -14 -3 -22 -9 -10 -6 -13 15 -13 14 0 26 -5 26 -11 0 -10
49 -6 83 7 9 3 12 -20 13 -80 l0 -84 -80 -7 c-45 -4 -97 -5 -116 -3 l-35 3 -3
104 c-2 71 1 108 9 115 9 8 10 8 5 -1 -4 -7 -2 -13 4 -13 27 0 50 23 56 55 7
41 17 44 32 11z m631 -23 c-3 -58 -19 -100 -31 -81 -6 10 -10 10 -18 -2 -8
-11 -9 -7 -4 15 4 17 11 32 17 34 5 2 3 8 -4 13 -11 7 -11 11 -2 15 8 3 11 14
7 29 -5 20 -2 24 15 24 20 0 22 -5 20 -47z m-85 8 c4 -5 -3 -7 -14 -4 -23 6
-26 13 -6 13 8 0 17 -4 20 -9z m-894 -78 c34 -54 37 -65 13 -56 -11 5 -14 3
-9 -6 6 -9 2 -12 -15 -9 -20 3 -23 9 -27 61 -2 31 -1 57 2 57 4 0 20 -21 36
-47z m-159 1 c11 -14 10 -15 -11 -12 -13 1 -25 9 -28 16 -5 17 23 15 39 -4z
m1029 -29 c27 -14 63 -25 80 -25 l30 0 0 -60 c0 -50 -3 -60 -17 -61 -10 0 -51
-1 -91 -2 l-73 -2 8 40 c11 57 8 108 -5 113 -17 5 -15 22 3 22 9 0 38 -11 65
-25z m-995 -85 c3 -5 2 -10 -4 -10 -5 0 -13 5 -16 10 -3 6 -2 10 4 10 5 0 13
-4 16 -10z m-897 -359 c2 -13 -2 -28 -9 -35 -9 -8 -10 -8 -5 1 3 6 2 14 -4 18
-5 3 -10 15 -10 26 0 28 24 19 28 -10z m290 23 c14 -4 22 -13 20 -23 -1 -9 1
-22 6 -30 6 -9 5 -12 0 -8 -18 11 -32 -48 -36 -150 -2 -56 -6 -105 -9 -108
-13 -13 -58 16 -70 45 -12 27 -18 30 -44 24 -27 -5 -28 -5 -12 8 17 13 16 14
-9 16 -20 1 -25 -2 -20 -13 4 -13 2 -14 -14 -5 -29 15 -25 40 5 40 20 0 25 5
26 28 0 15 3 21 6 12 15 -40 52 -48 54 -11 0 10 2 11 6 4 12 -31 19 -8 15 54
-5 73 -15 88 -64 99 -52 12 -28 24 45 24 39 0 82 -3 95 -6z m117 -4 c4 -6 1
-18 -6 -26 -11 -14 -13 -14 -21 0 -15 26 12 51 27 26z m524 2 c-25 -11 -90
-93 -82 -105 4 -6 12 -3 22 9 24 30 49 36 59 16 5 -9 7 -23 4 -31 -3 -10 1
-12 14 -8 18 7 18 6 2 -7 -10 -7 -18 -21 -18 -30 0 -13 -5 -16 -21 -11 -11 4
-32 4 -47 0 l-27 -7 25 -13 c24 -14 24 -14 4 -15 -12 0 -25 -7 -28 -16 -3 -8
-2 -12 4 -9 6 3 10 -3 10 -15 0 -18 5 -21 38 -20 57 3 59 1 27 -20 l-30 -21
29 7 c22 5 27 4 24 -7 -6 -15 -61 -14 -66 2 -2 5 -17 2 -33 -6 -36 -19 -38
-28 -3 -14 29 10 37 7 40 -17 2 -11 -5 -13 -31 -8 -36 6 -35 8 -48 -61 -2 -11
-7 8 -12 41 l-7 62 -71 -2 -71 -2 -7 -32 c-4 -18 -11 -38 -16 -44 -16 -20 -17
-126 -1 -125 7 0 39 -1 71 -1 47 -2 57 -5 58 -19 0 -14 2 -15 6 -3 3 8 14 25
23 37 l18 23 -2 -29 c0 -16 -5 -27 -10 -24 -5 4 -7 -3 -4 -15 3 -12 1 -23 -6
-25 -18 -7 25 -35 65 -42 43 -7 116 10 142 33 12 11 16 24 12 40 l-6 23 40
-23 c55 -31 67 -17 75 88 7 76 6 82 -13 87 -19 4 -19 7 -6 48 7 24 20 60 29
80 8 20 17 59 20 85 2 27 5 52 5 56 1 9 47 1 99 -17 l37 -13 1 -119 c0 -65 -2
-123 -4 -129 -2 -7 -16 -14 -32 -18 -19 -3 -29 -11 -28 -23 0 -23 -11 -90 -21
-117 -12 -34 -8 -43 29 -69 19 -13 34 -29 33 -35 -1 -5 4 -16 12 -22 8 -7 15
-27 15 -45 l0 -33 -357 -1 c-197 -1 -364 3 -371 7 -9 7 -14 93 -18 370 l-6
362 214 -1 c117 0 206 -3 197 -7z m320 -1 c18 -12 7 -57 -18 -70 -25 -14 -90
5 -116 34 -12 12 -30 27 -41 33 -15 9 -1 11 71 12 50 0 96 -4 104 -9z m-1445
-9 c-7 -4 -14 -18 -17 -32 -4 -21 -4 -20 -6 8 -1 24 3 32 17 32 11 0 13 -3 6
-8z m126 -10 c0 -12 -8 -18 -25 -20 -16 -1 -25 3 -25 13 0 21 -18 19 -22 -2
-3 -15 -5 -14 -10 5 -6 20 -3 22 38 22 36 0 44 -3 44 -18z m116 3 c-8 -8 -17
-15 -19 -15 -3 0 -7 7 -11 15 -4 11 2 15 20 15 23 0 24 -2 10 -15z m302 3 c-6
-18 -28 -21 -28 -4 0 9 7 16 16 16 9 0 14 -5 12 -12z m1430 -63 c24 -23 27
-32 27 -93 l0 -67 -35 2 c-28 2 -32 1 -17 -8 9 -5 17 -22 17 -37 l0 -27 13 24
c19 39 37 38 37 -2 0 -48 11 -97 21 -97 5 0 9 7 9 15 0 8 5 15 10 15 16 0 12
-37 -5 -44 -18 -7 -20 -49 -3 -75 10 -17 6 -28 -33 -78 -24 -32 -61 -83 -81
-114 -29 -44 -43 -57 -67 -61 -37 -5 -47 0 -60 33 -7 19 -6 30 2 39 10 10 7
10 -10 1 -15 -8 -23 -8 -23 -1 0 16 -14 12 -27 -10 -11 -17 -10 -19 5 -14 16
5 16 5 0 -9 -10 -8 -18 -19 -18 -26 0 -6 -5 -11 -11 -11 -6 0 -9 6 -6 14 14
36 17 103 7 131 -17 42 -40 154 -40 192 0 28 4 33 24 33 41 0 57 11 75 53 l17
40 23 -36 c29 -48 33 -47 14 3 -9 22 -13 43 -9 47 4 4 28 10 54 13 44 6 45 7
19 15 -18 4 -43 3 -65 -4 -27 -9 -45 -10 -65 -2 -16 6 -40 11 -54 11 -24 0
-25 3 -20 36 7 42 18 57 71 96 34 24 48 28 108 28 60 0 72 -3 96 -25z m-1598
-25 c0 -12 -7 -20 -17 -20 -10 0 -35 -3 -55 -6 -31 -5 -38 -4 -38 9 0 22 28
36 73 37 30 0 37 -4 37 -20z m1157 -52 c-3 -8 -6 -5 -6 6 -1 11 2 17 5 13 3
-3 4 -12 1 -19z m-390 -20 c-3 -8 -6 -5 -6 6 -1 11 2 17 5 13 3 -3 4 -12 1
-19z m1078 -50 c6 -44 1 -110 -10 -128 -10 -15 -23 -12 -28 8 -3 10 -6 5 -7
-13 -2 -27 -3 -26 -14 15 -19 67 -27 128 -16 110 8 -12 10 -9 10 12 0 20 6 28
23 31 12 2 25 5 29 6 4 0 10 -18 13 -41z m-1074 -4 c-5 -16 -10 -21 -10 -12
-1 18 10 51 15 45 2 -1 -1 -16 -5 -33z m366 -36 c-3 -7 -5 -2 -5 12 0 14 2 19
5 13 2 -7 2 -19 0 -25z m263 5 c0 -65 -25 -92 -69 -78 -13 4 -18 13 -16 31 3
27 25 59 25 36 0 -7 7 -12 15 -12 8 0 15 7 15 15 0 10 -10 15 -31 15 -17 0
-28 4 -24 10 3 6 24 10 46 10 36 0 39 -2 39 -27z m-1420 -13 c11 -7 11 -10 2
-10 -7 0 -10 -5 -6 -12 4 -7 3 -8 -5 -4 -6 4 -9 11 -6 16 3 4 -1 11 -7 13 -7
3 -8 6 -3 6 6 0 17 -4 25 -9z m1219 -72 c-1 -37 -2 -39 -9 -18 l-8 25 -1 -27
c-1 -17 -8 -29 -21 -33 -31 -10 -40 2 -40 51 l0 44 40 0 40 0 -1 -42z m491 22
c0 -5 -4 -10 -10 -10 -5 0 -10 5 -10 10 0 6 5 10 10 10 6 0 10 -4 10 -10z
m-1036 -101 c-3 -5 -10 -7 -15 -3 -5 3 -7 10 -3 15 3 5 10 7 15 3 5 -3 7 -10
3 -15z m549 1 c3 -11 1 -18 -4 -14 -5 3 -9 12 -9 20 0 20 7 17 13 -6z m-1073
-256 c0 -52 -1 -55 -22 -52 -20 3 -23 10 -26 56 -3 50 -2 52 22 52 25 0 26 -3
26 -56z m-312 -11 c2 -40 1 -43 -22 -43 -20 0 -25 6 -29 38 -5 46 -3 50 25 48
19 -1 23 -7 26 -43z m-209 -25 c1 -10 -3 -18 -9 -18 -5 0 -10 19 -9 43 1 36 2
38 9 17 4 -14 8 -33 9 -42z m1801 2 c0 -5 -7 -7 -15 -4 -8 4 -15 8 -15 10 0 2
7 4 15 4 8 0 15 -4 15 -10z"/>
<path d="M2750 4535 c0 -8 5 -15 10 -15 6 0 10 7 10 15 0 8 -4 15 -10 15 -5 0
-10 -7 -10 -15z"/>
<path d="M2753 4435 c0 -8 4 -15 9 -15 4 0 8 7 8 15 0 8 -4 15 -8 15 -5 0 -9
-7 -9 -15z"/>
<path d="M2753 4305 c0 -8 4 -15 9 -15 4 0 8 7 8 15 0 8 -4 15 -8 15 -5 0 -9
-7 -9 -15z"/>
<path d="M967 3806 c-4 -10 -1 -13 9 -9 7 3 14 9 14 14 0 14 -17 10 -23 -5z"/>
<path d="M1141 3597 c-17 -21 -5 -25 44 -14 30 7 41 13 33 19 -20 12 -64 9
-77 -5z"/>
<path d="M1151 3547 c-16 -16 -14 -25 12 -41 19 -13 29 -13 67 -2 37 11 41 15
25 21 -11 4 -29 10 -40 15 -41 17 -53 18 -64 7z"/>
<path d="M1115 3390 c3 -5 13 -10 21 -10 8 0 14 5 14 10 0 6 -9 10 -21 10 -11
0 -17 -4 -14 -10z"/>
<path d="M2182 3540 c-12 -5 -29 -7 -37 -4 -15 6 -33 -21 -22 -32 9 -9 74 15
87 32 14 16 6 17 -28 4z"/>
<path d="M537 3733 c-4 -3 -7 -11 -7 -17 0 -6 5 -5 12 2 6 6 9 14 7 17 -3 3
-9 2 -12 -2z"/>
<path d="M1205 2571 c-13 -5 -20 -19 -22 -44 -1 -30 3 -40 24 -54 23 -16 27
-15 59 2 38 20 41 27 19 49 -22 22 -18 32 5 11 19 -18 20 -17 20 4 0 33 -57
50 -105 32z"/>
<path d="M880 2356 c0 -2 7 -7 16 -10 8 -3 12 -2 9 4 -6 10 -25 14 -25 6z"/>
<path d="M913 2325 c-9 -20 -9 -31 3 -53 14 -26 14 -26 14 26 0 28 -1 52 -2
52 -2 0 -8 -12 -15 -25z"/>
<path d="M826 2307 c3 -10 9 -15 12 -12 3 3 0 11 -7 18 -10 9 -11 8 -5 -6z"/>
<path d="M1575 2580 c-21 -23 -4 -27 19 -4 18 17 20 24 8 24 -5 0 -17 -9 -27
-20z"/>
<path d="M1709 2484 c-44 -23 -60 -47 -53 -82 8 -40 31 -49 46 -17 12 26 24
30 46 16 24 -15 9 -46 -21 -44 -39 3 -33 -5 13 -17 49 -13 80 -5 80 20 0 18
-43 60 -63 60 -5 0 -15 8 -22 17 -11 14 -10 19 4 29 25 19 1 33 -30 18z"/>
<path d="M1560 2460 c-9 -6 -10 -10 -3 -10 6 0 15 5 18 10 8 12 4 12 -15 0z"/>
<path d="M1645 2330 c3 -5 8 -10 11 -10 2 0 4 5 4 10 0 6 -5 10 -11 10 -5 0
-7 -4 -4 -10z"/>
<path d="M2129 2372 c5 -10 17 -24 25 -32 24 -19 21 12 -2 33 -24 22 -35 21
-23 -1z"/>
<path d="M1053 1713 c-7 -2 -13 -17 -13 -33 0 -33 23 -45 64 -34 20 5 26 12
26 34 0 35 -36 50 -77 33z m27 -33 c0 -5 -4 -10 -10 -10 -5 0 -10 5 -10 10 0
6 5 10 10 10 6 0 10 -4 10 -10z"/>
<path d="M1171 1706 c-21 -25 4 -56 43 -56 28 0 35 4 40 27 5 17 3 29 -6 34
-21 14 -64 10 -77 -5z"/>
<path d="M1117 1618 c-17 -10 -3 -19 37 -23 33 -3 40 2 34 23 -4 9 -55 10 -71
0z"/>
<path d="M1610 1861 c0 -25 6 -27 13 -6 4 8 2 17 -3 20 -6 4 -10 -3 -10 -14z"/>
<path d="M2032 1861 c-10 -6 -10 -10 3 -21 13 -11 15 -9 15 9 0 24 0 24 -18
12z"/>
<path d="M1623 1833 c-22 -4 -27 -13 -24 -40 1 -7 -4 -13 -11 -13 -7 0 -19 -9
-26 -20 -11 -19 -11 -19 7 -8 11 7 23 10 26 7 9 -10 -6 -38 -23 -42 -10 -3 -5
-4 9 -4 23 1 28 8 39 52 7 27 17 56 23 63 5 6 8 11 6 11 -2 -1 -14 -4 -26 -6z"/>
<path d="M1025 659 c-4 -6 -5 -12 -2 -15 2 -3 7 2 10 11 7 17 1 20 -8 4z"/>
<path d="M1917 624 c5 -13 7 -13 14 -2 6 8 12 9 17 3 4 -6 19 -11 35 -10 24 0
25 1 10 13 -9 6 -32 12 -50 12 -25 0 -31 -3 -26 -16z"/>
<path d="M1933 543 c9 -2 23 -2 30 0 6 3 -1 5 -18 5 -16 0 -22 -2 -12 -5z"/>
<path d="M1845 500 c-29 -7 -29 -8 10 -9 22 0 47 4 55 9 12 8 10 9 -10 9 -14
-1 -38 -5 -55 -9z"/>
<path d="M1980 490 c0 -5 5 -10 10 -10 6 0 10 5 10 10 0 6 -4 10 -10 10 -5 0
-10 -4 -10 -10z"/>
<path d="M1760 481 c0 -6 8 -15 18 -20 10 -5 24 -21 31 -34 11 -20 16 -23 26
-14 10 10 10 14 -1 20 -8 5 -12 12 -9 18 4 5 -3 9 -14 9 -11 0 -27 7 -35 16
-9 8 -16 11 -16 5z"/>
<path d="M1930 460 c-12 -8 -11 -10 7 -10 12 0 25 5 28 10 8 13 -15 13 -35 0z"/>
<path d="M1562 540 c0 -14 2 -19 5 -12 2 6 2 18 0 25 -3 6 -5 1 -5 -13z"/>
<path d="M36 3759 c-8 -41 -8 -51 2 -45 8 5 16 76 9 76 -3 0 -7 -14 -11 -31z"/>
<path d="M610 2514 c0 -8 5 -12 11 -8 8 5 9 -5 4 -34 -4 -25 -2 -42 4 -47 6
-3 12 -3 12 2 7 43 6 61 -3 81 -13 25 -28 29 -28 6z"/>
<path d="M570 1840 c0 -8 5 -22 10 -30 9 -13 10 -13 10 0 0 8 -5 22 -10 30 -9
13 -10 13 -10 0z"/>
<path d="M66 1705 c-3 -9 -6 -26 -5 -38 1 -14 4 -9 9 13 9 37 7 52 -4 25z"/>
<path d="M135 1220 c-3 -5 -1 -10 4 -10 6 0 11 5 11 10 0 6 -2 10 -4 10 -3 0
-8 -4 -11 -10z"/>
</g>
</svg>
